<?xml version="1.0" standalone="no"?>
<!DOCTYPE svg PUBLIC "-//W3C//DTD SVG 20010904//EN"
 "http://www.w3.org/TR/2001/REC-SVG-20010904/DTD/svg10.dtd">
<svg version="1.0" xmlns="http://www.w3.org/2000/svg"
 width="620.000000pt" height="620.000000pt" viewBox="0 0 620.000000 620.000000"
 preserveAspectRatio="xMidYMid meet">
<metadata>
Created by potrace 1.11, written by Peter Selinger 2001-2013
</metadata>
<g transform="translate(0.000000,620.000000) scale(0.100000,-0.100000)"
fill="#000000" stroke="none">
<path d="M3096 5560 c-4 -11 -75 -291 -111 -440 -2 -8 -14 -53 -25 -100 -12
-47 -23 -92 -25 -100 -2 -8 -27 -107 -55 -220 -29 -113 -53 -209 -54 -215 -2
-5 -6 -21 -9 -35 -4 -14 -36 -144 -73 -290 -36 -146 -106 -427 -155 -625 -50
-198 -119 -475 -154 -615 -35 -140 -116 -464 -180 -720 -64 -256 -118 -472
-120 -480 -3 -14 -79 -320 -90 -365 -3 -11 -44 -173 -91 -360 -47 -187 -87
-348 -90 -357 -5 -17 16 -11 256 75 8 3 56 20 105 37 50 17 99 36 110 41 11 5
58 22 105 38 47 16 141 49 210 74 69 24 229 81 355 126 127 45 239 86 250 91
11 5 256 93 545 196 289 103 528 190 532 193 4 3 -17 85 -47 181 -29 96 -79
258 -110 360 -31 102 -58 192 -60 200 -3 14 -47 157 -80 260 -7 25 -37 122
-65 215 -106 348 -191 627 -235 770 -19 61 -57 187 -85 280 -66 217 -101 331
-195 640 -43 138 -83 270 -90 295 -10 37 -248 820 -259 855 -2 6 -6 3 -10 -5z
m84 -1892 c18 -57 42 -137 55 -178 13 -41 37 -122 55 -180 17 -58 47 -154 65
-215 19 -60 84 -274 145 -475 61 -201 126 -414 145 -475 74 -242 98 -320 99
-329 1 -7 -225 -94 -404 -155 -30 -10 -219 -78 -419 -150 -200 -72 -366 -131
-369 -131 -4 0 0 25 13 80 29 124 579 2310 581 2310 2 0 17 -46 34 -102z"/>
</g>
</svg>
